# File created by Blade
# Date/Time:  Fri Jan 16 19:32:17 2015
# Frame Rate: 120.000 fps
#------------------------------------------------------
:FULLY-SPECIFIED
:DEGREES
284
root 19.519549 35.471978 -19.976186 13.548535 14.725060 0.468592
Spine -29.029131 -14.507925 -0.249023
Head 18.165007 -0.706185 8.646876
LeftShoulder 0.295481 -9.636869 -7.842801
LeftArm -111.158739 62.308386 -214.313417
LeftForeArm 36.272553 0.000000 128.652107
LeftHand 10.876921 0.000000 -6.350285
LeftHandThumb1 -26.253704 0.000000 33.147579
RightShoulder -16.583218 26.058886 -34.264120
RightArm -202.209886 53.253911 -238.227217
RightForeArm 4.749647 0.000000 154.667148
RightHand 1.673335 -0.000000 -20.864730
RightHandThumb1 -24.326973 -0.000000 -32.862282
LeftUpLeg -4.641507 -1.286716 1.824581
LeftLeg -7.398230 -0.000000 0.000000
LeftFoot -18.750442 25.278225 -13.605131
LeftToeBase 26.154333 -0.000000 -0.000000
RightUpLeg -1.250492 -18.678835 0.316025
RightLeg -4.978979 -0.000000 0.000000
RightFoot -23.967950 -25.325647 21.800068
RightToeBase 23.481411 -0.000000 -0.000000
285
root 19.522037 35.470585 -19.970046 13.584645 14.695718 0.474477
Spine -29.034226 -14.573667 -0.219479
Head 18.136764 -0.586647 8.647571
LeftShoulder 0.157920 -9.452557 -7.775474
LeftArm -111.086925 62.573009 -214.110029
LeftForeArm 36.181569 -0.000000 128.616666
LeftHand 11.074545 -0.000000 -6.518950
LeftHandThumb1 -26.253704 0.000000 33.147579
RightShoulder -16.621567 26.083134 -34.265453
RightArm -202.188434 53.117684 -238.505767
RightForeArm 4.239168 -0.000000 154.734576
RightHand 1.520038 -0.000000 -20.695435
RightHandThumb1 -24.326973 -0.000000 -32.862282
LeftUpLeg -4.653179 -1.282393 1.804427
LeftLeg -7.420606 -0.000000 0.000000
LeftFoot -18.747464 25.380295 -13.555433
LeftToeBase 26.202588 -0.000000 -0.000000
RightUpLeg -1.278735 -18.676033 0.312844
RightLeg -4.977923 -0.000000 0.000000
RightFoot -23.977446 -25.291192 21.796923
RightToeBase 23.510242 -0.000000 -0.000000
286
root 19.522734 35.468024 -19.963460 13.619774 14.668970 0.467101
Spine -29.035974 -14.643495 -0.179790
Head 18.096159 -0.469172 8.655548
LeftShoulder 0.058411 -9.239858 -7.719206
LeftArm -110.915019 62.775306 -213.848625
LeftForeArm 36.277722 0.000000 128.566596
LeftHand 11.244021 -0.000000 -6.694356
LeftHandThumb1 -26.253704 0.000000 33.147579
RightShoulder -16.686356 26.188261 -34.321635
RightArm -202.215234 52.914315 -238.758690
RightForeArm 4.135487 -0.000000 154.864947
RightHand 1.490684 -0.000000 -20.485142
RightHandThumb1 -24.326973 -0.000000 -32.862282
LeftUpLeg -4.668176 -1.253051 1.818417
LeftLeg -7.426203 -0.000000 0.000000
LeftFoot -18.772161 25.301144 -13.591108
LeftToeBase 26.127809 -0.000000 -0.000000
RightUpLeg -1.302138 -18.659271 0.326233
RightLeg -4.993737 -0.000000 0.000000
RightFoot -23.974289 -25.330020 21.717560
RightToeBase 23.632960 -0.000000 -0.000000
287
root 19.523624 35.465815 -19.956689 13.657118 14.632337 0.462128
Spine -29.045986 -14.711535 -0.119654
Head 18.025813 -0.354890 8.607234
LeftShoulder -0.053819 -9.110923 -7.780261
LeftArm -110.463234 62.691512 -213.351245
LeftForeArm 36.472784 -0.000000 128.625532
LeftHand 11.246887 0.000000 -6.968076
LeftHandThumb1 -26.253704 0.000000 33.147579
RightShoulder -16.756799 26.226425 -34.385295
RightArm -202.228819 52.798051 -239.003444
RightForeArm 3.861066 -0.000000 155.042669
RightHand 1.393552 0.000000 -20.468987
RightHandThumb1 -24.326973 -0.000000 -32.862282
LeftUpLeg -4.677003 -1.243852 1.822691
LeftLeg -7.448948 -0.000000 0.000000
LeftFoot -18.793539 25.317314 -13.594587
LeftToeBase 26.129431 -0.000000 -0.000000
RightUpLeg -1.334227 -18.646880 0.334801
RightLeg -4.994199 -0.000000 0.000000
RightFoot -23.960942 -25.273335 21.737199
RightToeBase 23.499310 -0.000000 -0.000000
288
root 19.524834 35.463835 -19.948212 13.691241 14.580053 0.454187
Spine -29.051922 -14.776166 -0.045361
Head 17.954996 -0.255645 8.507324
LeftShoulder -0.192727 -8.912170 -7.834558
LeftArm -110.133419 62.644518 -212.940874
LeftForeArm 36.722990 -0.000000 128.704120
LeftHand 11.270623 0.000000 -7.255736
LeftHandThumb1 -26.253704 0.000000 33.147579
RightShoulder -16.835571 26.285120 -34.480482
RightArm -202.291004 52.706884 -239.296681
RightForeArm 3.591471 0.000000 155.239011
RightHand 1.256511 -0.000000 -20.510666
RightHandThumb1 -24.326973 -0.000000 -32.862282
LeftUpLeg -4.680356 -1.207169 1.824511
LeftLeg -7.467892 -0.000000 0.000000
LeftFoot -18.803201 25.326887 -13.564808
LeftToeBase 26.208342 -0.000000 -0.000000
RightUpLeg -1.358075 -18.609093 0.343593
RightLeg -5.009944 -0.000000 0.000000
RightFoot -23.959773 -25.274668 21.736325
RightToeBase 23.497126 -0.000000 -0.000000
289
root 19.524258 35.462475 -19.941963 13.702944 14.510077 0.447528
Spine -29.024849 -14.726809 -0.029143
Head 17.909538 -0.201735 8.403500
LeftShoulder -0.203371 -8.694907 -7.884381
LeftArm -109.796550 62.699603 -212.445991
LeftForeArm 36.794402 0.000000 128.777762
LeftHand 11.354141 -0.000000 -7.556136
LeftHandThumb1 -26.253704 0.000000 33.147579
RightShoulder -16.905153 26.362051 -34.571206
RightArm -202.313194 52.741623 -239.672086
RightForeArm 3.430431 -0.000000 155.368809
RightHand 1.216396 -0.000000 -20.408495
RightHandThumb1 -24.326973 -0.000000 -32.862282
LeftUpLeg -4.659553 -1.170251 1.822135
LeftLeg -7.495149 -0.000000 0.000000
LeftFoot -18.823127 25.354628 -13.577094
LeftToeBase 26.215818 -0.000000 -0.000000
RightUpLeg -1.366338 -18.553088 0.343140
RightLeg -5.022085 -0.000000 0.000000
RightFoot -23.952274 -25.293978 21.697065
RightToeBase 23.520907 -0.000000 -0.000000
290
root 19.530161 35.460070 -19.924068 13.645691 14.458474 0.450173
Spine -28.951640 -14.778690 -0.001486
Head 17.899584 -0.045272 8.374469
LeftShoulder -0.355457 -8.310864 -7.868653
LeftArm -109.834155 62.902922 -212.358083
LeftForeArm 37.071422 0.000000 128.755370
LeftHand 11.474886 -0.000000 -7.761046
LeftHandThumb1 -26.253704 0.000000 33.147579
RightShoulder -16.964195 26.451033 -34.670717
RightArm -202.521725 52.811361 -240.106958
RightForeArm 3.007181 -0.000000 155.525741
RightHand 1.040712 -0.000000 -20.338510
RightHandThumb1 -24.326973 -0.000000 -32.862282
LeftUpLeg -4.534041 -1.123662 1.803490
LeftLeg -7.549595 -0.000000 0.000000
LeftFoot -18.833708 25.344971 -13.595859
LeftToeBase 26.206226 -0.000000 -0.000000
RightUpLeg -1.255469 -18.578998 0.302188
RightLeg -5.070855 -0.000000 0.000000
RightFoot -23.926565 -25.222387 21.695384
RightToeBase 23.531176 -0.000000 -0.000000
291
root 19.533396 35.458646 -19.915892 13.681679 14.334151 0.441109
Spine -28.976065 -14.808316 0.070362
Head 17.870330 0.176187 8.359240
LeftShoulder -0.576610 -8.045406 -7.892341
LeftArm -109.605835 62.915878 -212.025412
LeftForeArm 37.119794 -0.000000 128.860678
LeftHand 11.519832 0.000000 -8.107717
LeftHandThumb1 -26.253704 0.000000 33.147579
RightShoulder -17.085584 26.893135 -34.898970
RightArm -203.319197 53.026897 -240.939597
RightForeArm 2.749258 -0.000000 155.665135
RightHand 0.926049 -0.000000 -20.194967
RightHandThumb1 -24.326973 -0.000000 -32.862282
LeftUpLeg -4.519334 -1.022534 1.784169
LeftLeg -7.587754 -0.000000 0.000000
LeftFoot -18.839922 25.362616 -13.591867
LeftToeBase 26.167375 -0.000000 -0.000000
RightUpLeg -1.293963 -18.466837 0.292891
RightLeg -5.073846 -0.000000 0.000000
RightFoot -23.913050 -25.235371 21.653362
RightToeBase 23.567979 -0.000000 -0.000000
292
root 19.533760 35.458440 -19.913075 13.763991 14.219888 0.424465
Spine -29.029176 -14.858362 0.159506
Head 17.786636 0.362565 8.339399
LeftShoulder -0.852617 -7.854198 -7.842295
LeftArm -109.500150 62.877122 -211.879868
LeftForeArm 37.307111 -0.000000 128.960983
LeftHand 11.616358 -0.000000 -8.407322
LeftHandThumb1 -26.253704 0.000000 33.147579
RightShoulder -17.193814 27.058948 -35.042982
RightArm -203.716100 53.107019 -241.413590
RightForeArm 2.594122 -0.000000 155.747860
RightHand 0.970669 -0.000000 -20.141865
RightHandThumb1 -24.326973 -0.000000 -32.862282
LeftUpLeg -4.574007 -0.961586 1.783168
LeftLeg -7.605383 -0.000000 0.000000
LeftFoot -18.854408 25.413508 -13.594370
LeftToeBase 26.113837 -0.000000 -0.000000
RightUpLeg -1.402705 -18.363029 0.315833
RightLeg -5.055771 -0.000000 0.000000
RightFoot -23.917123 -25.254285 21.622303
RightToeBase 23.640263 -0.000000 -0.000000
293
root 19.535156 35.457704 -19.904720 13.793163 14.131174 0.417647
Spine -29.033798 -14.894245 0.218511
Head 17.730179 0.490561 8.273238
LeftShoulder -0.998141 -7.731951 -7.980675
LeftArm -108.913787 62.506330 -211.316922
LeftForeArm 37.628658 -0.000000 129.247253
LeftHand 11.471841 -0.000000 -8.909934
LeftHandThumb1 -26.253704 0.000000 33.147579
RightShoulder -17.237573 27.053119 -35.102543
RightArm -203.838096 53.195202 -241.748756
RightForeArm 2.454463 -0.000000 155.749014
RightHand 0.963273 -0.000000 -19.973661
RightHandThumb1 -24.326973 -0.000000 -32.862282
LeftUpLeg -4.571283 -0.885299 1.771768
LeftLeg -7.616407 -0.000000 0.000000
LeftFoot -18.876976 25.416071 -13.621536
LeftToeBase 26.168696 -0.000000 -0.000000
RightUpLeg -1.426856 -18.311406 0.314350
RightLeg -5.068513 -0.000000 0.000000
RightFoot -23.903240 -25.239134 21.603496
RightToeBase 23.645485 -0.000000 -0.000000
